<mxfile host="app.diagrams.net" modified="2020-11-24T05:51:04.021Z" agent="5.0 (Windows)" etag="Y0a7uCk412jII96ezMQn" version="13.10.1" type="github">
  <diagram id="FXjvPFPHhPnZGBNNQgGh" name="Page-1">
    <mxGraphModel dx="1038" dy="547" grid="1" gridSize="10" guides="1" tooltips="1" connect="1" arrows="1" fold="1" page="1" pageScale="1" pageWidth="1169" pageHeight="827" math="0" shadow="0">
      <root>
        <mxCell id="0" />
        <mxCell id="1" parent="0" />
        <mxCell id="JtPgS3tdn7TSqu4Dtihu-1" value="Procument Planning" style="swimlane;html=1;childLayout=stackLayout;resizeParent=1;resizeParentMax=0;horizontal=1;startSize=20;horizontalStack=0;" vertex="1" parent="1">
          <mxGeometry x="30" y="10" width="990" height="480" as="geometry" />
        </mxCell>
        <mxCell id="JtPgS3tdn7TSqu4Dtihu-2" value="Procurement Head" style="swimlane;html=1;startSize=20;horizontal=0;" vertex="1" parent="JtPgS3tdn7TSqu4Dtihu-1">
          <mxGeometry y="20" width="990" height="220" as="geometry" />
        </mxCell>
        <mxCell id="JtPgS3tdn7TSqu4Dtihu-3" value="Director/CEO" style="swimlane;html=1;startSize=20;horizontal=0;" vertex="1" parent="JtPgS3tdn7TSqu4Dtihu-1">
          <mxGeometry y="240" width="990" height="120" as="geometry" />
        </mxCell>
        <mxCell id="JtPgS3tdn7TSqu4Dtihu-4" value="HODs" style="swimlane;html=1;startSize=20;horizontal=0;" vertex="1" parent="JtPgS3tdn7TSqu4Dtihu-1">
          <mxGeometry y="360" width="990" height="120" as="geometry" />
        </mxCell>
      </root>
    </mxGraphModel>
  </diagram>
</mxfile>
